<svg xmlns="http://www.w3.org/2000/svg" version="1.0" width="904.000000pt" height="231.000000pt" viewBox="0 0 904.000000 231.000000" preserveAspectRatio="xMidYMid meet">

<g transform="translate(0.000000,231.000000) scale(0.100000,-0.100000)" fill="#6c69a0" stroke="none">
<path d="M815 2104 c-116 -59 -211 -108 -213 -109 -3 -2 368 -246 490 -323 48 -29 99 -67 113 -84 27 -32 34 -85 11 -94 -8 -3 -24 -24 -36 -48 -30 -55 -22 -106 25 -153 30 -30 39 -33 90 -33 51 0 60 3 90 33 46 46 54 93 25 152 -12 25 -26 45 -31 45 -5 0 -9 35 -9 78 0 63 -4 82 -17 94 -10 8 -121 81 -246 163 -185 120 -226 150 -215 160 25 24 113 65 139 65 16 0 85 -40 185 -106 178 -119 171 -118 173 -11 1 38 -4 52 -21 68 -39 35 -292 197 -318 203 -19 5 -75 -19 -235 -100z m532 -666 c31 -29 30 -72 -2 -103 -30 -30 -64 -32 -99 -4 -33 26 -36 79 -6 109 27 27 77 26 107 -2z"/>
<path d="M1510 1637 c0 -346 -1 -363 -20 -395 -20 -33 -22 -34 -70 -27 -63 9 -114 -8 -141 -46 -64 -91 -8 -209 100 -209 58 0 104 27 120 71 21 57 26 63 85 97 l56 33 0 293 c0 161 2 295 5 298 3 3 35 -10 71 -30 88 -46 98 -70 89 -204 -4 -54 -4 -133 0 -176 l7 -79 54 29 c30 16 59 38 64 48 6 10 10 100 10 202 0 206 -1 210 -72 250 -24 14 -114 66 -200 116 l-158 91 0 -362z m-73 -499 c31 -29 30 -72 -2 -103 -30 -30 -64 -32 -99 -4 -33 26 -36 79 -6 109 27 27 77 26 107 -2z"/>
<path d="M305 1755 c-88 -45 -165 -91 -171 -101 -11 -17 -37 -472 -28 -483 3 -4 421 210 535 275 41 23 91 45 110 49 43 8 89 -9 89 -32 0 -32 40 -84 76 -99 49 -20 101 -9 141 31 37 37 48 71 39 119 -14 74 -100 124 -170 98 -26 -10 -35 -8 -76 18 -26 17 -56 30 -66 30 -11 0 -81 -32 -154 -71 -157 -83 -367 -189 -375 -189 -3 0 -5 30 -5 68 0 106 11 117 205 214 91 46 165 85 164 88 -1 14 -102 70 -126 69 -16 0 -100 -38 -188 -84z m718 -214 c26 -26 25 -76 -3 -106 -31 -33 -73 -33 -105 0 -72 71 35 176 108 106z"/>
<path d="M659 1331 c-22 -21 -39 -48 -39 -59 0 -22 -32 -48 -93 -77 -21 -10 -42 -28 -47 -39 -4 -12 -11 -145 -15 -296 -4 -151 -9 -278 -11 -282 -7 -11 -112 52 -135 80 -20 26 -21 33 -14 225 l8 197 -62 -32 c-38 -21 -64 -42 -70 -58 -11 -29 -23 -355 -15 -387 4 -14 33 -39 78 -67 39 -24 129 -80 201 -126 l130 -82 6 69 c4 37 10 192 14 343 4 151 11 289 16 307 6 17 21 43 35 57 21 20 30 23 50 15 62 -23 131 -1 164 54 55 90 -11 197 -121 197 -35 0 -48 -6 -80 -39z m137 -34 c66 -57 -3 -166 -79 -126 -45 25 -57 57 -36 103 22 47 74 58 115 23z"/>
<path d="M2494 1356 c-3 -7 -4 -38 -2 -67 l3 -54 35 0 35 0 3 68 3 67 -36 0 c-21 0 -38 -6 -41 -14z"/>
<path d="M2758 1288 l-3 -83 -130 -5 -130 -5 0 -115 0 -115 38 -3 37 -3 0 86 0 86 93 -3 92 -3 3 -82 3 -83 34 0 35 0 0 205 0 205 -35 0 -34 0 -3 -82z"/>
<path d="M3075 1356 c-40 -17 -84 -63 -101 -103 -8 -18 -14 -58 -14 -90 0 -101 61 -186 144 -200 35 -6 36 -5 36 28 0 29 -6 37 -35 53 -102 55 -94 201 13 246 17 7 22 18 22 45 0 39 -13 44 -65 21z"/>
<path d="M3184 1355 c-10 -24 5 -65 22 -65 9 0 31 -15 50 -34 30 -30 34 -40 34 -86 0 -63 -21 -102 -69 -127 -29 -15 -36 -25 -36 -48 0 -25 5 -31 25 -33 40 -5 107 46 135 102 55 110 17 233 -87 287 -45 23 -67 24 -74 4z"/>
<path d="M3612 1353 c-19 -36 -112 -263 -112 -273 0 -5 17 -10 38 -10 l39 0 34 84 c19 46 39 84 44 86 11 3 96 -191 88 -202 -2 -5 -64 -8 -137 -8 l-133 0 -12 -26 c-6 -14 -9 -30 -6 -35 8 -13 405 -12 405 1 0 5 -37 98 -82 205 l-83 195 -37 0 c-25 0 -40 -6 -46 -17z"/>
<path d="M3966 1362 c-3 -5 59 -97 137 -205 141 -195 142 -197 180 -197 l37 0 0 205 0 205 -35 0 -34 0 -3 -137 -3 -138 -102 138 c-98 130 -105 137 -137 137 -19 0 -37 -4 -40 -8z"/>
<path d="M4570 1359 c-36 -14 -79 -58 -102 -103 -29 -57 -23 -158 15 -214 27 -42 89 -82 127 -82 16 0 20 6 20 35 0 29 -5 36 -34 50 -82 39 -98 144 -33 214 12 13 32 27 45 32 17 7 22 16 22 44 0 38 -12 43 -60 24z"/>
<path d="M4674 1343 c-6 -21 -2 -30 15 -42 12 -9 37 -28 56 -43 40 -34 95 -39 95 -9 0 27 -46 78 -91 101 -51 27 -67 25 -75 -7z"/>
<path d="M4982 1303 l3 -68 35 0 35 0 0 65 0 65 -38 3 -38 3 3 -68z"/>
<path d="M5247 1364 c-4 -4 -7 -43 -7 -86 l0 -78 -130 0 -130 0 0 -121 0 -120 38 3 37 3 3 83 3 82 89 0 89 0 3 -82 3 -83 38 -3 37 -3 -2 203 -3 203 -30 3 c-17 2 -34 0 -38 -4z"/>
<path d="M5571 1359 c-102 -41 -153 -157 -117 -266 24 -72 93 -133 150 -133 23 0 26 4 26 33 0 28 -5 36 -35 50 -99 47 -99 201 1 243 31 13 35 18 32 47 -3 35 -19 42 -57 26z"/>
<path d="M5677 1364 c-4 -4 -7 -20 -7 -36 0 -22 7 -31 35 -42 99 -42 99 -196 0 -243 -30 -14 -35 -22 -35 -50 0 -29 3 -33 25 -33 60 0 136 70 156 142 23 85 -12 189 -79 232 -41 28 -84 41 -95 30z"/>
<path d="M6047 1236 c-31 -75 -57 -143 -57 -151 0 -13 8 -15 36 -13 36 3 38 5 77 96 l40 93 44 -101 c23 -56 43 -108 43 -116 0 -11 -26 -14 -135 -14 l-135 0 -10 -26 c-6 -14 -10 -30 -10 -35 0 -11 397 -13 404 -1 2 4 -33 95 -78 202 l-82 195 -40 3 -39 3 -58 -135z"/>
<path d="M6450 1359 c0 -6 64 -98 142 -205 l141 -195 36 3 36 3 0 200 0 200 -35 0 -35 0 -5 -132 -5 -132 -99 134 c-98 132 -101 135 -138 135 -21 0 -38 -5 -38 -11z"/>
<path d="M7039 1347 c-65 -35 -102 -100 -103 -180 0 -43 6 -74 19 -102 25 -50 96 -105 136 -105 26 0 29 3 29 33 0 28 -5 36 -35 50 -51 24 -77 71 -72 129 5 59 29 95 73 114 29 12 34 19 34 49 0 43 -17 45 -81 12z"/>
<path d="M7167 1364 c-4 -4 -7 -20 -7 -36 0 -22 6 -31 28 -39 15 -6 39 -22 53 -35 27 -26 79 -31 86 -8 14 42 -130 148 -160 118z"/>
<path d="M7667 1363 c-4 -3 -7 -19 -7 -35 l0 -28 88 -1 c108 0 149 -14 180 -59 20 -29 23 -44 20 -88 -4 -44 -11 -59 -37 -85 -31 -31 -34 -32 -139 -37 l-107 -5 0 -30 0 -30 122 0 c121 0 121 0 160 31 49 40 72 81 79 141 12 95 -31 178 -111 214 -30 14 -65 19 -141 19 -55 0 -104 -3 -107 -7z"/>
<path d="M8157 1363 c-4 -3 -7 -19 -7 -35 l0 -28 155 0 155 0 0 35 0 35 -148 0 c-82 0 -152 -3 -155 -7z"/>
<path d="M8547 1363 c-3 -5 31 -97 75 -206 l81 -198 39 3 39 3 80 195 c44 109 75 198 70 203 -5 5 -23 7 -41 5 -33 -3 -34 -5 -88 -145 -31 -79 -58 -143 -61 -143 -7 0 -81 190 -81 207 0 7 21 13 53 15 50 3 52 4 52 33 l0 30 -107 3 c-58 1 -109 -1 -111 -5z"/>
<path d="M8154 1186 c-3 -8 -4 -23 -2 -33 3 -16 17 -18 146 -21 l142 -3 0 36 0 35 -140 0 c-113 0 -142 -3 -146 -14z"/>
<path d="M4642 1158 l3 -33 67 -5 67 -5 -14 -24 c-7 -14 -30 -34 -51 -46 -31 -18 -39 -28 -39 -51 0 -27 3 -29 37 -28 70 2 139 81 146 169 l4 55 -111 0 -112 0 3 -32z"/>
<path d="M7130 1155 l0 -35 65 0 c49 0 65 -3 65 -14 0 -17 -51 -62 -80 -71 -15 -5 -20 -15 -20 -41 0 -30 3 -34 25 -34 81 0 165 104 165 203 l0 27 -110 0 -110 0 0 -35z"/>
<path d="M1985 1161 c-12 -11 -478 -274 -558 -315 -50 -25 -63 -28 -94 -20 -32 8 -38 14 -50 56 -24 86 -107 128 -179 92 -54 -27 -79 -66 -78 -120 2 -81 71 -140 150 -128 34 5 49 0 100 -30 32 -20 68 -36 78 -36 17 0 300 152 457 246 31 19 59 34 63 34 3 0 6 -32 6 -70 0 -95 -16 -122 -89 -160 -68 -34 -252 -138 -264 -150 -14 -12 87 -70 122 -70 22 0 62 17 115 49 44 26 111 65 147 85 36 20 73 44 81 53 23 26 38 493 16 493 -8 0 -18 -4 -23 -9z m-778 -253 c30 -28 30 -74 1 -105 -29 -31 -72 -30 -103 2 -70 69 30 170 102 103z"/>
<path d="M3965 1077 c-4 -13 -5 -43 -3 -68 3 -43 4 -44 41 -47 l38 -3 -3 68 -3 68 -32 3 c-27 3 -33 -1 -38 -21z"/>
<path d="M6457 1094 c-4 -4 -7 -36 -7 -71 l0 -64 38 3 37 3 0 65 0 65 -30 3 c-17 2 -34 0 -38 -4z"/>
<path d="M783 1045 c-76 -33 -96 -144 -38 -205 26 -27 27 -32 20 -95 -5 -51 -3 -71 8 -88 8 -12 123 -87 256 -167 132 -80 240 -147 240 -150 1 -9 -103 -68 -131 -75 -31 -8 -47 0 -232 112 -76 46 -140 83 -142 81 -11 -12 -8 -137 4 -151 8 -9 50 -38 95 -64 45 -26 112 -66 148 -90 95 -60 109 -62 177 -21 31 20 123 70 205 114 81 43 147 81 147 84 0 6 -387 245 -517 320 -40 23 -84 55 -98 71 -31 37 -33 84 -5 99 50 27 67 135 29 184 -42 53 -103 69 -166 41z m116 -71 c28 -35 26 -69 -4 -99 -48 -49 -128 -14 -128 55 0 68 89 98 132 44z"/>
<path d="M7452 1008 c3 -42 4 -43 41 -46 l37 -3 0 45 0 46 -41 0 -40 0 3 -42z"/>
<path d="M8154 1016 c-3 -8 -4 -23 -2 -33 3 -16 18 -18 156 -21 l152 -3 0 36 0 35 -150 0 c-122 0 -152 -3 -156 -14z"/>
</g>
</svg>